<?xml version="1.0" encoding="UTF-8" standalone="no" ?>
<!DOCTYPE svg PUBLIC "-//W3C//DTD SVG 1.1//EN" "http://www.w3.org/Graphics/SVG/1.1/DTD/svg11.dtd">
<svg xmlns="http://www.w3.org/2000/svg" xmlns:xlink="http://www.w3.org/1999/xlink" version="1.1" width="1080" height="1080" viewBox="0 0 1080 1080" xml:space="preserve">
<desc>Created with Fabric.js 5.2.4</desc>
<defs>
</defs>
<rect x="0" y="0" width="100%" height="100%" fill="transparent"></rect>
<g transform="matrix(1 0 0 1 540 540)" id="a5446e22-420b-4106-b129-06ea89523185"  >
<rect style="stroke: none; stroke-width: 1; stroke-dasharray: none; stroke-linecap: butt; stroke-dashoffset: 0; stroke-linejoin: miter; stroke-miterlimit: 4; fill: rgb(255,255,255); fill-rule: nonzero; opacity: 1; visibility: hidden;" vector-effect="non-scaling-stroke"  x="-540" y="-540" rx="0" ry="0" width="1080" height="1080" />
</g>
<g transform="matrix(1 0 0 1 540 540)" id="00e6dbfd-f10f-4db5-acb0-608596a9c535"  >
</g>
<g transform="matrix(1 0 0 1 540 540)"  >
<g style="" vector-effect="non-scaling-stroke"   >
		<g transform="matrix(1 0 0 1 0 43)"  >
<path style="stroke: none; stroke-width: 1; stroke-dasharray: none; stroke-linecap: butt; stroke-dashoffset: 0; stroke-linejoin: miter; stroke-miterlimit: 4; fill: rgb(0,0,0); fill-rule: nonzero; opacity: 1;" vector-effect="non-scaling-stroke"  transform=" translate(-256, -299)" d="M 510.362 215.571 L 428.372 90.54599999999999 C 426.523 87.728 423.38100000000003 86.02999999999999 420.011 86.02999999999999 L 92.378 86.02999999999999 C 89.015 86.02999999999999 85.878 87.71999999999998 84.028 90.52899999999998 L 1.906 215.181 C 1.515 215.72 1.176 216.30200000000002 0.893 216.924 C -0.728 220.49800000000002 -0.10799999999999987 224.689 2.4779999999999998 227.64100000000002 L 44.103 275.168 C 47.742000000000004 279.323 54.058 279.741 58.212 276.103 C 62.366 272.464 62.784000000000006 266.147 59.146 261.994 L 32.049 231.05300000000003 L 166.55 231.05300000000003 L 234.137 461.8 L 157.762 374.595 C 154.124 370.44000000000005 147.806 370.02200000000005 143.653 373.66 C 139.499 377.29900000000004 139.081 383.61600000000004 142.719 387.769 L 248.50900000000001 508.56 C 250.407 510.728 253.15 511.972 256.031 511.972 C 258.913 511.972 261.654 510.72799999999995 263.552 508.55899999999997 L 376.182 379.92699999999996 C 379.821 375.772 379.40200000000004 369.455 375.24600000000004 365.818 C 371.09000000000003 362.179 364.773 362.59799999999996 361.13700000000006 366.75399999999996 L 277.9270000000001 461.787 L 345.5110000000001 231.05199999999996 L 479.9560000000001 231.05199999999996 L 417.7730000000001 302.07199999999995 C 414.13400000000007 306.2269999999999 414.55300000000005 312.5439999999999 418.70900000000006 316.1809999999999 C 420.60600000000005 317.8429999999999 422.95400000000006 318.6579999999999 425.2920000000001 318.6579999999999 C 428.07400000000007 318.6579999999999 430.8420000000001 317.50299999999993 432.8180000000001 315.2449999999999 L 509.5240000000001 227.63999999999987 C 512.482 224.262 512.825 219.326 510.362 215.571 z M 28.573 211.055 L 92.358 114.23400000000001 L 155.853 211.055 L 28.573 211.055 z M 110.892 106.029 L 237.515 106.029 L 174.20399999999998 202.57 L 110.892 106.029 z M 256.03 114.263 L 319.505 211.055 L 192.555 211.055 L 256.03 114.263 z M 256.03 465.403 L 187.38799999999998 231.05300000000003 L 324.67199999999997 231.05300000000003 L 256.03 465.403 z M 338.02 202.821 L 274.54499999999996 106.029 L 401.49699999999996 106.029 L 338.02 202.821 z M 356.535 211.055 L 420.011 114.263 L 483.485 211.055 L 356.535 211.055 z" stroke-linecap="round" />
</g>
		<g transform="matrix(1 0 0 1 -155.59 81.02)"  >
<path style="stroke: none; stroke-width: 1; stroke-dasharray: none; stroke-linecap: butt; stroke-dashoffset: 0; stroke-linejoin: miter; stroke-miterlimit: 4; fill: rgb(0,0,0); fill-rule: nonzero; opacity: 1;" vector-effect="non-scaling-stroke"  transform=" translate(-100.41, -337.02)" d="M 157.189 327.017 C 131.396 327.017 110.411 306.032 110.411 280.239 C 110.411 274.717 105.934 270.23999999999995 100.412 270.23999999999995 C 94.89000000000001 270.23999999999995 90.41300000000001 274.7169999999999 90.41300000000001 280.239 C 90.41300000000001 306.032 69.42800000000001 327.017 43.63500000000001 327.017 C 38.11400000000001 327.017 33.63600000000001 331.49399999999997 33.63600000000001 337.016 C 33.63600000000001 342.538 38.11400000000001 347.01500000000004 43.63500000000001 347.01500000000004 C 69.42800000000001 347.01500000000004 90.41300000000001 368.00000000000006 90.41300000000001 393.79300000000006 C 90.41300000000001 399.31500000000005 94.891 403.7920000000001 100.412 403.7920000000001 C 105.933 403.7920000000001 110.411 399.3150000000001 110.411 393.79300000000006 C 110.411 368.00000000000006 131.39600000000002 347.01500000000004 157.189 347.01500000000004 C 162.71099999999998 347.01500000000004 167.188 342.53800000000007 167.188 337.016 C 167.188 331.494 162.711 327.017 157.189 327.017 z M 100.412 358.677 C 94.96100000000001 349.89500000000004 87.533 342.468 78.75200000000001 337.016 C 87.53300000000002 331.565 94.96000000000001 324.13800000000003 100.412 315.355 C 105.863 324.137 113.29100000000001 331.564 122.072 337.016 C 113.291 342.468 105.864 349.894 100.412 358.677 z" stroke-linecap="round" />
</g>
		<g transform="matrix(1 0 0 1 206 -205.98)"  >
<path style="stroke: none; stroke-width: 1; stroke-dasharray: none; stroke-linecap: butt; stroke-dashoffset: 0; stroke-linejoin: miter; stroke-miterlimit: 4; fill: rgb(0,0,0); fill-rule: nonzero; opacity: 1;" vector-effect="non-scaling-stroke"  transform=" translate(-462, -50.02)" d="M 502.001 40.023 C 485.46099999999996 40.023 472.00399999999996 26.566000000000003 472.00399999999996 10.026000000000003 C 472.00399999999996 4.504000000000003 467.52599999999995 0.0270000000000028 462.00499999999994 0.0270000000000028 C 456.4839999999999 0.0270000000000028 452.0059999999999 4.504000000000003 452.0059999999999 10.026000000000003 C 452.0059999999999 26.566000000000003 438.5489999999999 40.023 422.0089999999999 40.023 C 416.4879999999999 40.023 412.0099999999999 44.5 412.0099999999999 50.022000000000006 C 412.0099999999999 55.54400000000001 416.4879999999999 60.02100000000001 422.0089999999999 60.02100000000001 C 438.5489999999999 60.02100000000001 452.0059999999999 73.47800000000001 452.0059999999999 90.018 C 452.0059999999999 95.54 456.4839999999999 100.017 462.00499999999994 100.017 C 467.52599999999995 100.017 472.00399999999996 95.53999999999999 472.00399999999996 90.018 C 472.00399999999996 73.47800000000001 485.46099999999996 60.021 502.001 60.021 C 507.522 60.021 512 55.544 512 50.022 C 512 44.5 507.522 40.023 502.001 40.023 z M 462.005 60.052 C 459.152 56.254 455.77299999999997 52.875 451.975 50.022 C 455.773 47.169 459.15200000000004 43.79 462.005 39.992 C 464.858 43.79 468.237 47.169 472.03499999999997 50.022 C 468.237 52.874 464.857 56.254 462.005 60.052 z" stroke-linecap="round" />
</g>
		<g transform="matrix(1 0 0 1 139.71 86.44)"  >
<path style="stroke: none; stroke-width: 1; stroke-dasharray: none; stroke-linecap: butt; stroke-dashoffset: 0; stroke-linejoin: miter; stroke-miterlimit: 4; fill: rgb(0,0,0); fill-rule: nonzero; opacity: 1;" vector-effect="non-scaling-stroke"  transform=" translate(-395.72, -342.44)" d="M 402.783 335.371 C 400.92400000000004 333.501 398.344 332.441 395.71500000000003 332.441 C 393.08400000000006 332.441 390.516 333.501 388.646 335.371 C 386.786 337.231 385.716 339.811 385.716 342.44 C 385.716 345.069 386.785 347.649 388.646 349.509 C 390.50600000000003 351.369 393.084 352.439 395.71500000000003 352.439 C 398.345 352.439 400.92400000000004 351.369 402.783 349.509 C 404.64300000000003 347.649 405.714 345.069 405.714 342.44 C 405.714 339.811 404.644 337.231 402.783 335.371 z" stroke-linecap="round" />
</g>
</g>
</g>
</svg>