<!DOCTYPE svg PUBLIC "-//W3C//DTD SVG 1.1//EN" "http://www.w3.org/Graphics/SVG/1.1/DTD/svg11.dtd">
<svg height="200px" width="200px" version="1.1" id="SVGRepoEditor" xmlns="http://www.w3.org/2000/svg" xmlns:xlink="http://www.w3.org/1999/xlink" viewBox="-2.1 -2.1 25.17 25.17" xml:space="preserve" fill="#000000" stroke="#000000" stroke-width="0">
<g id="SVGRepo_bgCarrier" stroke-whiteidth="0">
<rect x="-2.1" y="-2.1" whiteidth="25.17" height="25.17" rx="12.585" fill="" strokewhiteidth="0"/>
</g> <path style="fill:white;" d="M20.966,4.305c0-0.467-0.38-0.847-0.848-0.847H0.848C0.381,3.458,0,3.838,0,4.305v1.052 c0,0.042,0.004,0.081,0.009,0.115C0.004,5.505,0,5.538,0,5.572v11.09c0,0.467,0.38,0.846,0.848,0.846h19.271 c0.468,0,0.848-0.379,0.848-0.846V5.572c0-0.044-0.005-0.084-0.011-0.121c0.007-0.045,0.011-0.091,0.011-0.136L20.966,4.305 L20.966,4.305z M2.013,5.152h16.888l-8.419,6.1L2.013,5.152z M19.272,7.217v8.598H1.694V7.217l8.297,5.914 c0.289,0.207,0.697,0.205,0.984,0.002L19.272,7.217z"/> </svg>